<?xml version="1.0" standalone="no"?>
<!DOCTYPE svg PUBLIC "-//W3C//DTD SVG 20010904//EN"
 "http://www.w3.org/TR/2001/REC-SVG-20010904/DTD/svg10.dtd">
<svg version="1.0" xmlns="http://www.w3.org/2000/svg"
 width="256.000000pt" height="256.000000pt" viewBox="0 0 256.000000 256.000000"
 preserveAspectRatio="xMidYMid meet">
<metadata>
Created by potrace 1.14, written by Peter Selinger 2001-2017
</metadata>
<g transform="translate(0.000000,256.000000) scale(0.100000,-0.100000)"
fill="#000000" stroke="none">
<path d="M1245 2553 c-178 -34 -368 -189 -474 -385 -31 -59 -81 -199 -81 -229
0 -11 -13 -22 -35 -29 -130 -43 -191 -246 -102 -341 12 -13 21 -37 22 -58 5
-113 64 -198 169 -242 l55 -22 -50 -23 c-27 -13 -74 -39 -103 -59 -29 -19 -68
-38 -87 -41 -51 -10 -87 -40 -100 -85 -7 -21 -16 -39 -21 -39 -22 0 -80 -79
-95 -130 -21 -69 -22 -83 -7 -143 25 -99 85 -168 175 -203 24 -9 47 -20 52
-24 4 -3 -2 -33 -13 -66 -38 -109 -45 -236 -16 -292 17 -33 65 -72 89 -72 8 0
20 -7 28 -16 38 -46 133 -63 215 -39 93 27 154 99 154 183 0 13 9 31 20 40 18
16 50 113 50 155 0 17 5 18 48 11 86 -14 201 -9 291 13 51 12 167 72 201 105
l35 33 49 -35 c43 -30 58 -35 115 -36 36 -2 80 -8 98 -15 24 -10 40 -10 70 -1
32 10 43 20 65 64 14 29 29 64 33 78 8 27 44 83 57 88 4 2 8 9 8 15 0 6 6 18
13 26 21 24 58 151 59 199 0 50 -27 101 -67 122 -16 8 -41 29 -57 47 -56 62
-192 87 -268 49 -35 -18 -90 -71 -90 -87 0 -5 -9 0 -20 11 -11 11 -28 20 -39
20 -10 0 -30 9 -45 21 l-26 21 66 76 c62 73 154 211 154 232 0 6 15 27 34 47
43 49 65 97 70 153 6 71 16 98 40 104 34 8 64 43 76 87 6 22 26 60 45 84 76
100 94 229 47 322 -33 64 -123 123 -187 123 -14 0 -28 6 -31 14 -10 25 -70 47
-114 42 -45 -5 -105 -38 -114 -61 -3 -8 -12 -15 -20 -15 -8 0 -28 -12 -45 -26
-22 -18 -32 -22 -35 -12 -32 108 -86 182 -162 217 -44 21 -148 34 -199 24z"/>
</g>
</svg>
